<?xml version="1.0" standalone="no"?>
<!DOCTYPE svg PUBLIC "-//W3C//DTD SVG 20010904//EN"
 "http://www.w3.org/TR/2001/REC-SVG-20010904/DTD/svg10.dtd">
<svg version="1.0" xmlns="http://www.w3.org/2000/svg"
 width="700.000000pt" height="700.000000pt" viewBox="0 0 700.000000 700.000000"
 preserveAspectRatio="xMidYMid meet">
<metadata>
Created by potrace 1.14, written by Peter Selinger 2001-2017
</metadata>
<g transform="translate(0.000000,700.000000) scale(0.100000,-0.100000)"
fill="#000000" stroke="none">
<path d="M4305 5533 c-32 -98 -92 -277 -132 -398 -41 -121 -76 -227 -78 -235
-2 -8 -35 -109 -73 -225 -128 -386 -623 -1885 -769 -2330 -79 -242 -148 -449
-152 -460 -15 -40 -48 -145 -45 -145 2 0 52 98 112 217 60 120 175 346 254
503 80 157 234 461 343 675 109 215 277 548 375 740 98 193 214 423 260 513
45 89 85 162 88 162 4 0 25 -29 47 -65 22 -35 68 -108 103 -162 35 -54 120
-187 190 -296 164 -257 977 -1520 1109 -1725 56 -86 139 -216 185 -288 45 -73
86 -127 89 -120 4 6 9 27 13 46 9 52 13 69 30 141 8 37 17 78 20 90 5 28 41
196 65 299 5 25 12 56 15 70 6 33 66 311 71 330 2 8 13 58 24 110 43 198 62
286 66 305 14 66 105 488 114 525 19 82 50 225 55 250 2 14 9 45 15 70 5 25
13 61 16 80 3 19 11 53 16 75 11 41 15 59 24 107 3 16 12 56 20 90 8 35 17 77
20 93 3 17 20 96 38 178 18 81 31 147 28 147 -3 0 -78 -170 -165 -378 -88
-207 -167 -395 -177 -417 -9 -22 -41 -96 -69 -165 -29 -69 -59 -138 -66 -155
-7 -16 -63 -149 -125 -295 -61 -146 -117 -278 -124 -295 -45 -102 -75 -175
-75 -184 0 -50 -41 14 -489 749 -55 91 -105 170 -110 177 -6 7 -11 14 -11 17
0 3 -337 556 -550 901 -37 61 -136 223 -220 360 -84 138 -187 305 -228 373
-41 67 -78 122 -81 122 -4 0 -33 -80 -66 -177z"/>
<path d="M3670 5632 c-19 -36 -67 -124 -106 -196 -39 -72 -95 -176 -124 -231
-29 -55 -66 -125 -83 -155 -65 -119 -86 -158 -129 -240 -216 -406 -250 -468
-345 -643 -29 -54 -53 -99 -53 -101 0 -3 -17 -35 -38 -73 -22 -37 -63 -113
-92 -168 -29 -55 -83 -156 -120 -225 -37 -69 -87 -161 -110 -205 -42 -78 -96
-180 -150 -280 -79 -146 -404 -754 -450 -840 -29 -55 -57 -104 -62 -110 -5 -5
-92 -10 -209 -10 l-201 -1 -141 166 c-78 91 -146 170 -152 176 -5 6 -41 49
-80 94 -92 110 -196 232 -255 300 -26 30 -78 91 -115 135 -82 98 -123 145
-255 300 -137 161 -137 161 -199 235 -30 36 -59 70 -64 75 -9 9 80 -166 198
-390 23 -44 73 -138 110 -210 37 -71 75 -143 85 -160 9 -16 52 -97 95 -180 43
-82 97 -186 120 -230 23 -44 68 -129 100 -190 32 -60 80 -153 108 -205 27 -52
74 -142 105 -200 30 -58 71 -136 92 -175 20 -38 68 -128 105 -200 60 -116 108
-205 122 -228 3 -4 10 -4 16 1 11 9 302 158 772 395 134 68 152 80 162 109 6
18 30 87 53 153 23 66 50 143 61 170 10 28 87 244 170 480 83 237 171 486 196
555 25 69 53 150 63 180 10 30 37 107 60 170 23 63 47 133 54 155 8 22 80 227
161 455 81 228 173 489 205 580 32 91 86 243 119 338 67 189 166 470 212 601
17 46 28 85 27 87 -2 1 -19 -27 -38 -64z"/>
</g>
</svg>
